<?xml version="1.0" encoding="UTF-8"?>
<svg id="Layer_1" data-name="Layer 1" xmlns="http://www.w3.org/2000/svg" viewBox="0 0 1800 1080">
  <defs>
    <style>
      .cls-1 {
        fill: #efe5d5;
        stroke-width: 0px;
      }
    </style>
  </defs>
  <path class="cls-1" d="M984.26,520.15c-6.49-32.5-32.26-61.1-76.8-61.1h-56.33v118.47c-11.29,2.14-23.1,1.63-34.52-1.97-33.99-10.72-54.32-41.79-51.22-80.63.47-5.84,2.32-10.67,6.49-14.44,2.76-2.51,5.47-5.12,8.41-7.35,11.8-8.96,24.68-15.64,37.77-21.81,12.07-5.69,24.29-10.99,36.46-16.44,4.07-1.83,6.71-5.08,7.86-9.64,1.5-5.95.81-11.73-.63-18.02,0,0,0,0,0-.01,0,0,0,0,0,0-.13-.55-.25-1.1-.39-1.65-.25.84-.55,1.6-.89,2.29-.9.45-1.67.84-2.45,1.17-1.15.48-2.33.88-3.52,1.27-11.14,3.7-22.58,3.98-34.18,3.3-7.74-.46-15.54-.44-23.29-.13-3.66.15-7.56.86-10.84,2.42-5.17,2.46-7.65,7.58-10.62,12.21,1.98-2.49,4.86-3.46,7.95-4.06,1.43-.28,2.91-.5,4.37-.49,13.55.12,27.1.3,41.37.47-.62.66-1.2,1.29-1.78,1.92-4.19,1.87-8.38,3.73-12.58,5.6h0s-19.31,9.61-19.31,9.61c-4.46,2.96-8.85,5.87-13.07,9.03-5.73,4.29-10.42,9.76-12.91,17.04-4.08,11.9-6,24.3-5.56,36.7,1.23,34.91,16.31,60.28,45.78,73.01,14.25,6.16,28.12,7.81,41.34,5.13v30.5h30.86c8.16,41.91,49.26,77.52,103.3,54.86l50.76-20.79-51.79-126.46ZM907.46,593.76l-19.87.12c4.62-18.5,19.67-36.72,47.9-48.07l46-16.96c4.18,31.35-20.55,65.39-74.03,64.92ZM975.16,510.03l-46.52,19.05c-12.08,4.95-21.67,11.61-29.01,19.36,14-20.03,18.82-45.92,13.27-70.73,31.62,1.21,52.36,14.82,62.26,32.32ZM869.69,477.61h37.77c1.39,0,2.75.01,4.1.05.15.51.29,1.04.41,1.62,2.77,12.94,2.51,25.91-.47,39.01-5.61,24.69-21.76,43.38-41.81,53.08v-93.75ZM869.69,575.23c7.33-3.97,14.4-9.39,21.17-16.24.6-.61,1.19-1.22,1.76-1.85-7.63,11.2-11.46,23.93-12.03,36.78l-10.9.06v-18.75ZM978.36,650.48c-51.59,21.66-88-4.82-91.97-37.94h21.07c53.41.44,79.26-38.77,78.41-77.66l40.19,96.43-47.7,19.17Z"/>
  <path class="cls-1" d="M835.82,503.41c-1.46-1.08-2.8-2.04-4.02-2.89-.47-.33-.8-.49-.99-.49-.14,0-.33.12-.56.35-1.22,1.46-2.62,3.13-4.19,5.01-1.58,1.88-3.07,3.71-4.48,5.5-.09.09-.19.2-.28.32-.09.12-.14.22-.14.32,0,.19.23.47.71.85,1.36,1.22,2.8,2.42,4.3,3.6,1.5,1.18,2.91,2.21,4.23,3.1.38.24.66.35.85.35.09,0,.22-.08.39-.25.16-.16.29-.32.39-.46l8.53-10.29c.28-.38.42-.63.42-.78,0-.19-.09-.35-.28-.49-.19-.14-.4-.33-.63-.56-1.36-1.03-2.77-2.09-4.23-3.17Z"/>
</svg>