<?xml version="1.0" encoding="UTF-8"?>
<svg id="Layer_1" data-name="Layer 1" xmlns="http://www.w3.org/2000/svg" viewBox="0 0 1800 1080">
  <defs>
    <style>
      .cls-1 {
        fill: #0a0a0a;
        stroke-width: 0px;
      }
    </style>
  </defs>
  <g>
    <path class="cls-1" d="M680.22,544.54c3.72,1.9,6.58,4.61,8.57,8.13,1.98,3.52,2.98,7.67,2.98,12.45s-.99,8.91-2.98,12.42c-1.99,3.5-4.84,6.18-8.57,8.03-3.73,1.85-8.13,2.78-13.22,2.78h-14.52v-46.65h14.52c5.09,0,9.49.95,13.22,2.84ZM680.79,578.54c3.17-3.19,4.75-7.66,4.75-13.42s-1.6-10.33-4.79-13.58c-3.19-3.26-7.77-4.89-13.75-4.89h-8.43v36.67h8.43c6.02,0,10.62-1.59,13.79-4.79Z"/>
    <path class="cls-1" d="M712.45,585.77c-3.57-2.03-6.39-4.86-8.47-8.5-2.08-3.64-3.11-7.73-3.11-12.28s1.04-8.64,3.11-12.28c2.07-3.64,4.9-6.47,8.47-8.5,3.57-2.03,7.52-3.04,11.85-3.04s8.34,1.02,11.91,3.04c3.57,2.03,6.38,4.85,8.43,8.47,2.05,3.61,3.08,7.72,3.08,12.31s-1.03,8.7-3.08,12.31c-2.05,3.61-4.86,6.44-8.43,8.47-3.57,2.03-7.54,3.04-11.91,3.04s-8.28-1.01-11.85-3.04ZM733.09,581.25c2.61-1.52,4.66-3.68,6.16-6.49s2.24-6.07,2.24-9.77-.75-7.02-2.24-9.8-3.54-4.94-6.12-6.46c-2.59-1.52-5.53-2.28-8.83-2.28s-6.25.76-8.83,2.28c-2.59,1.52-4.63,3.67-6.12,6.46-1.5,2.79-2.24,6.06-2.24,9.8s.75,6.96,2.24,9.77c1.49,2.81,3.55,4.98,6.16,6.49,2.61,1.52,5.54,2.28,8.8,2.28s6.19-.76,8.8-2.28Z"/>
    <path class="cls-1" d="M765.18,546.65v15.59h17v5.02h-17v16.06h19.01v5.02h-25.1v-46.71h25.1v5.02h-19.01Z"/>
    <path class="cls-1" d="M803.29,587.17c-2.43-1.09-4.34-2.61-5.72-4.55-1.38-1.94-2.1-4.18-2.14-6.73h6.49c.22,2.19,1.13,4.03,2.71,5.52,1.58,1.5,3.89,2.24,6.93,2.24s5.19-.72,6.86-2.18c1.67-1.45,2.51-3.31,2.51-5.59,0-1.78-.49-3.23-1.47-4.35-.98-1.11-2.21-1.96-3.68-2.54-1.47-.58-3.46-1.2-5.96-1.87-3.08-.8-5.54-1.61-7.39-2.41-1.85-.8-3.44-2.06-4.75-3.78-1.32-1.72-1.97-4.03-1.97-6.93,0-2.54.65-4.79,1.94-6.76,1.29-1.96,3.11-3.48,5.45-4.55,2.34-1.07,5.03-1.61,8.06-1.61,4.37,0,7.95,1.09,10.74,3.28,2.79,2.19,4.36,5.09,4.72,8.7h-6.69c-.22-1.78-1.16-3.36-2.81-4.72-1.65-1.36-3.84-2.04-6.56-2.04-2.54,0-4.62.66-6.22,1.97-1.61,1.32-2.41,3.16-2.41,5.52,0,1.7.48,3.08,1.44,4.15.96,1.07,2.14,1.88,3.55,2.44,1.41.56,3.38,1.19,5.92,1.91,3.08.85,5.55,1.68,7.43,2.51,1.87.83,3.48,2.1,4.82,3.81,1.34,1.72,2.01,4.05,2.01,6.99,0,2.28-.6,4.42-1.81,6.42-1.2,2.01-2.99,3.64-5.35,4.89-2.37,1.25-5.15,1.87-8.37,1.87s-5.83-.54-8.26-1.64Z"/>
    <path class="cls-1" d="M888.36,544.54c3.72,1.9,6.58,4.61,8.57,8.13,1.98,3.52,2.98,7.67,2.98,12.45s-.99,8.91-2.98,12.42c-1.99,3.5-4.84,6.18-8.57,8.03-3.73,1.85-8.13,2.78-13.22,2.78h-14.52v-46.65h14.52c5.09,0,9.49.95,13.22,2.84ZM888.92,578.54c3.17-3.19,4.75-7.66,4.75-13.42s-1.6-10.33-4.79-13.58c-3.19-3.26-7.77-4.89-13.75-4.89h-8.43v36.67h8.43c6.02,0,10.62-1.59,13.79-4.79Z"/>
    <path class="cls-1" d="M917.37,546.65v15.59h17v5.02h-17v16.06h19.01v5.02h-25.1v-46.71h25.1v5.02h-19.01Z"/>
    <path class="cls-1" d="M955.48,587.17c-2.43-1.09-4.34-2.61-5.72-4.55-1.38-1.94-2.1-4.18-2.14-6.73h6.49c.22,2.19,1.13,4.03,2.71,5.52,1.58,1.5,3.89,2.24,6.93,2.24s5.19-.72,6.86-2.18c1.67-1.45,2.51-3.31,2.51-5.59,0-1.78-.49-3.23-1.47-4.35-.98-1.11-2.21-1.96-3.68-2.54-1.47-.58-3.46-1.2-5.96-1.87-3.08-.8-5.54-1.61-7.39-2.41-1.85-.8-3.44-2.06-4.75-3.78-1.32-1.72-1.97-4.03-1.97-6.93,0-2.54.65-4.79,1.94-6.76,1.29-1.96,3.11-3.48,5.45-4.55,2.34-1.07,5.03-1.61,8.06-1.61,4.37,0,7.95,1.09,10.74,3.28,2.79,2.19,4.36,5.09,4.72,8.7h-6.69c-.22-1.78-1.16-3.36-2.81-4.72-1.65-1.36-3.84-2.04-6.56-2.04-2.54,0-4.62.66-6.22,1.97-1.61,1.32-2.41,3.16-2.41,5.52,0,1.7.48,3.08,1.44,4.15.96,1.07,2.14,1.88,3.55,2.44,1.41.56,3.38,1.19,5.92,1.91,3.08.85,5.55,1.68,7.43,2.51,1.87.83,3.48,2.1,4.82,3.81,1.34,1.72,2.01,4.05,2.01,6.99,0,2.28-.6,4.42-1.81,6.42-1.2,2.01-2.99,3.64-5.35,4.89-2.37,1.25-5.15,1.87-8.37,1.87s-5.83-.54-8.26-1.64Z"/>
    <path class="cls-1" d="M997.67,541.7v46.65h-6.09v-46.65h6.09Z"/>
    <path class="cls-1" d="M1046.73,555.22c-1.29-2.72-3.17-4.83-5.62-6.32-2.45-1.5-5.31-2.24-8.57-2.24s-6.19.75-8.8,2.24-4.66,3.64-6.16,6.42c-1.5,2.79-2.24,6.01-2.24,9.67s.75,6.87,2.24,9.64c1.49,2.77,3.55,4.9,6.16,6.39s5.54,2.24,8.8,2.24c4.55,0,8.3-1.36,11.24-4.08,2.94-2.72,4.66-6.4,5.15-11.04h-18.61v-4.95h25.1v4.68c-.36,3.84-1.56,7.35-3.61,10.54-2.05,3.19-4.75,5.71-8.1,7.56-3.35,1.85-7.07,2.78-11.18,2.78-4.33,0-8.28-1.01-11.85-3.04-3.57-2.03-6.39-4.85-8.47-8.47-2.08-3.61-3.11-7.7-3.11-12.25s1.04-8.64,3.11-12.28c2.07-3.64,4.9-6.47,8.47-8.5,3.57-2.03,7.52-3.04,11.85-3.04,4.95,0,9.34,1.23,13.15,3.68,3.81,2.46,6.59,5.91,8.33,10.37h-7.29Z"/>
    <path class="cls-1" d="M1103.48,588.35h-6.09l-24.5-37.14v37.14h-6.09v-46.71h6.09l24.5,37.08v-37.08h6.09v46.71Z"/>
    <path class="cls-1" d="M1123.73,587.17c-2.43-1.09-4.34-2.61-5.72-4.55-1.38-1.94-2.1-4.18-2.14-6.73h6.49c.22,2.19,1.13,4.03,2.71,5.52,1.58,1.5,3.89,2.24,6.93,2.24s5.19-.72,6.86-2.18c1.67-1.45,2.51-3.31,2.51-5.59,0-1.78-.49-3.23-1.47-4.35-.98-1.11-2.21-1.96-3.68-2.54-1.47-.58-3.46-1.2-5.96-1.87-3.08-.8-5.54-1.61-7.39-2.41-1.85-.8-3.44-2.06-4.75-3.78-1.32-1.72-1.97-4.03-1.97-6.93,0-2.54.65-4.79,1.94-6.76,1.29-1.96,3.11-3.48,5.45-4.55,2.34-1.07,5.03-1.61,8.06-1.61,4.37,0,7.95,1.09,10.74,3.28,2.79,2.19,4.36,5.09,4.72,8.7h-6.69c-.22-1.78-1.16-3.36-2.81-4.72-1.65-1.36-3.84-2.04-6.56-2.04-2.54,0-4.62.66-6.22,1.97-1.61,1.32-2.41,3.16-2.41,5.52,0,1.7.48,3.08,1.44,4.15.96,1.07,2.14,1.88,3.55,2.44,1.41.56,3.38,1.19,5.92,1.91,3.08.85,5.55,1.68,7.43,2.51,1.87.83,3.48,2.1,4.82,3.81,1.34,1.72,2.01,4.05,2.01,6.99,0,2.28-.6,4.42-1.81,6.42-1.2,2.01-2.99,3.64-5.35,4.89-2.37,1.25-5.15,1.87-8.37,1.87s-5.83-.54-8.26-1.64Z"/>
  </g>
  <g>
    <path class="cls-1" d="M879.42,507.33c.23.83-.53,1.21-1.06,1.43-.6.3-1.21.68-1.73.91-.53.23-1.13.45-1.66.75-.75.45-1.66.83-2.41,1.28-.15.15-.3.08-.45.23-.98.53-2.11,1.06-3.02,1.66-.3.15-.68.23-.98.38-.23.15-.53.38-.68.53-.38.23-.75.23-1.06.45-.38.23-.75.38-1.13.6,0,0-.08.15-.15.15-.15.08-.3.08-.45.15-.53.38-1.28.68-1.81,1.06-.15.08-.3.08-.45.15q-.08.08-.15.15c-.15.08-.23.08-.38.15-.23.15-.38.6-.45.91-.15.3-.45.68-.6.98-.23.6-.38,1.06-.6,1.66l-.3.3c0,.15,0,.3-.08.38,0,.08-.15.15-.15.23-.08.08-.08.23-.08.38-.08.15-.23.23-.3.38,0,.08,0,.23-.08.38,0,.08-.15.15-.23.23v.3c-.08.08-.23.23-.3.38v.3c-.08.08-.15.15-.23.23-.08.08-.08.23-.08.38-.08.15-.23.23-.3.38s0,.3-.15.45c0,.08-.08.08-.15.15v.38c-.08.15-.23.23-.3.38v.3c-.08.08-.23.23-.3.3,0,.15,0,.3-.08.45,0,0-.08,0-.15.08-.08.15,0,.3-.08.53l-.3.3v.38c-.08.08-.23.15-.23.23-.08.15,0,.23-.08.38-.08.15-.23.23-.3.3v.38c-.08.15-.23.23-.3.38v.3c-.08.15-.23.23-.3.38,0,.15,0,.23-.08.38,0,.08-.15.15-.23.3,0,.15-.08.23-.08.38-.08.08-.15.15-.23.23v.38c-.08.15-.23.23-.3.3v.38l-.3.3v.38c-.08.15-.23.23-.23.3-.08.15-.08.3-.15.45,0,.08-.15.15-.23.23,0,.15,0,.3-.08.45-.08.08-.15.08-.23.15v.45c-.08.08-.15.15-.23.23-.08.08,0,.3-.08.45s-.23.23-.3.38c0,.08,0,.23-.08.38,0,.08-.15.23-.23.3-.08.15,0,.3-.08.38,0,.08-.15.08-.15.15-.08.15-.08.3-.08.45-.08.08-.23.23-.3.38,0,.08,0,.23-.08.38,0,.08-.15.15-.23.3-.08.15,0,.3-.08.45-.08.08-.15.15-.23.23v.3c-.08.15-.23.23-.3.3v.38c-.08.08-.15.15-.23.3-.08.08-.08.3-.08.45-.08.08-.15.08-.23.15-.08.15,0,.3-.08.45-.08.15-.23.23-.3.38v.38c-.08.08-.23.15-.3.3v.38c-.08.15-.23.23-.3.38-.08.15,0,.3-.08.45-.08.08-.15.08-.23.15v.38c-.08.15-.23.23-.3.3v.38c-.08.15-.23.23-.3.38v.3c-.08.15-.23.3-.3.45v.23c-.08.15-.23.23-.3.38v.3c-.08.15-.23.3-.3.45v.3c-.08.15-.23.23-.3.3,0,.15,0,.3-.08.45,0,.15-.15.23-.23.38v.38c-.08.08-.23.15-.23.23-.08.15-.08.3-.08.38-.08.15-.23.23-.3.38v.3c-.08.15-.23.3-.3.45v.3c-.08.08-.23.15-.23.23-.08.15-.08.3-.08.45l-.3.3c0,.15,0,.3-.08.45,0,.08-.15.15-.23.3v.38c-.08.15-.23.23-.3.38,0,.15,0,.23-.08.38,0,.08-.15.15-.23.23,0,.15-.08.3-.08.53-.08,0-.15.08-.23.15v.45c-.08.15-.23.23-.3.38v.3c-.08.15-.23.23-.3.38,0,.15,0,.23-.08.38,0,.08-.15.15-.15.23-.08.15-.08.3-.08.45-.08.08-.23.23-.23.3-.08.15-.08.3-.15.53-.08.08-.15.23-.23.38,0,.08,0,.15-.08.3-.68,1.28-1.21,2.72-1.74,4.15-.08.15-.23.3-.3.38v.38c-.08.15-.23.23-.23.3-.08.15-.08.3-.08.45-.08.08-.23.23-.23.3-.08.15-.08.3-.15.53,0,.08-.15.15-.23.23v.45c-.08.08-.15.15-.23.23-.08.15,0,.3-.08.45-.08.15-.23.23-.3.38v.3c-.08.08-.15.23-.23.3-.08.23-.08.38-.08.53-.08.08-.23.23-.23.3-.08.15-.08.23-.08.38l-.23.23c-.08.15-.08.38-.15.53,0,.08-.15.23-.15.3-.08.15-.08.3-.08.45-.08.15-.23.3-.3.45-.15.45-.3.83-.45,1.28,0,.15-.08.3-.08.45-.08.38-.23.83-.3,1.13-.08.15-.08.3-.08.45-.91,3.09-1.58,6.49-2.79,9.35-.3.68-.6,1.96-1.21,2.41-.15.08-.38.15-.53.3-.38.15-.98.3-1.43.08-1.06-.45-1.06-1.58-.6-2.72.53-1.21,1.06-2.34,1.58-3.55.15-.45.23-.83.38-1.28.38-.98.83-2.11,1.13-3.09.15-.38.15-.68.23-1.06,1.51-4,2.49-8.3,3.77-12.6.08-.3.08-.6.15-.98.6-1.66.83-3.62,1.36-5.36.08-.3,0-.6.08-.98.38-1.21.53-2.57.83-3.7.08-.45.08-.83.15-1.28.3-1.06.3-2.41.6-3.54.08-.38-.08-.68.08-1.06.08-.45.08-.98.15-1.43v-.6c.08-.3.08-.83.08-.98,0-.3,0-.75.08-.98,0-.15,0-.3-.08-.38,0-.38.08-.83,0-1.13v-.68c0-.68-.08-1.28-.15-1.96-.15-.6-.23-1.21-.38-1.81-.68-1.74-1.58-3.17-3.24-3.85-.6-.23-1.28-.38-1.89-.53h-1.06c-.6-.15-2.11-.15-2.64.08-.45.08-.91.38-1.28.53-.91.45-1.81.83-2.72,1.21-.45.15-.83.23-1.21.38-.75.3-1.51.6-2.26.91-.15,0-.38,0-.53.08-.3.08-.91.38-1.43.23-.68-.15-1.36-.68-1.51-1.43-.08-.53.3-.98.45-1.21.23-.15.38-.38.53-.53.45-.38.91-.53,1.36-.75,1.51-.98,3.62-1.58,5.51-2.19h.45c.3-.08.75-.23,1.06-.3.23,0,.38,0,.53-.08.53-.08,1.81-.3,2.41-.23h1.06c.68.08,1.66-.6,2.19-.83,1.43-.6,2.79-1.28,4.3-1.81.15-.08.23-.23.38-.3,1.51-.68,2.94-1.28,4.3-2.04.15-.08.38-.08.53-.15.75-.38,1.51-.83,2.34-1.13l.23-.23c.15-.08.3-.08.45-.15.23-.15.6-.38.91-.53,1.13-.53,2.34-1.06,3.39-1.74.15-.08.3-.08.45-.15.38-.23.91-.53,1.28-.75.15-.08.3-.08.45-.15.45-.23.91-.53,1.28-.75.15-.08.3-.08.45-.15.6-.38,1.28-.68,1.81-1.06.15-.08.3-.08.45-.15.08,0,.15-.15.23-.23.38-.23.91-.3,1.28-.6.3-.23.3-.75.45-1.13.23-.38.38-.83.53-1.28.08-.08.23-.23.3-.38.15-.38.15-.68.38-1.06,0-.08.15-.15.23-.3,0-.15,0-.3.08-.45.15-.3.38-.6.45-.91.45-.91.75-1.89,1.21-2.79.08-.15.08-.3.08-.45.08-.15.23-.23.3-.38.23-.68.38-1.21.68-1.81,0-.08.15-.23.15-.3.15-.3,0-.53.08-.75.08-.15.23-.3.3-.38.38-.98.75-1.89,1.21-2.79.3-.83.6-1.51.91-2.26.15-.45.23-.91.53-1.28.15-.15.45-.38.68-.45.08-.08.23-.08.3-.08.3,0,.53,0,.75.08.6.23,1.36,1.06,1.06,1.96-.15.45-.45.91-.68,1.28s-.3.68-.53,1.06c-.83,1.36-1.51,2.79-2.34,4.15-.08.15-.08.3-.15.45-.3.6-.68,1.28-1.06,1.89-.08.15-.08.3-.15.53-.23.38-.45.83-.75,1.21-.15.38-.3.75-.45,1.13-.15.23-.38.6-.53.91,0,.08,0,.15-.08.3,0,.08-.15.23-.23.3-.15.38-.23.68-.38.98-.23.3-.68.98-.68,1.43.08,0,.15,0,.23.08.38-.3.83-.45,1.21-.68,1.13-.68,2.34-1.36,3.47-2.04.08,0,.23,0,.38-.08,1.21-.75,2.64-1.51,3.85-2.26.45-.3.98-.45,1.43-.75.23-.15.45-.38.68-.53.3-.15.6-.23.91-.38.08-.08.08-.15.15-.23.6-.3,1.13-.6,1.74-.91.23-.15.53-.45.83-.53.75-.23,1.36.38,1.51.83ZM859.28,518.8h-.3c-.23.38-.75.45-1.13.6,0,.08-.08.15-.15.23-.15,0-.23.08-.38.08-.23.15-.53.38-.75.53-.15,0-.3.08-.45.08-.08.08-.15.23-.15.23-.15.08-.3.08-.38.15-.08,0-.15.15-.23.15-.08.08-.23.08-.3.08-.08.08-.15.15-.15.23-.15,0-.3.08-.45.08-.98.6-2.11,1.06-3.09,1.74-.15.08-.3,0-.45.08-1.13.6-2.26,1.28-3.47,1.81-.23.08-.6.38-.83.53-.3.15-.68.23-1.06.38-.45.3-.91.6-1.36.83-.15.08-.3.08-.45.08-.08.08-.08.15-.15.23-.08.08-.23,0-.3.08-.15.08-.23.15-.38.23-.91.45-1.74.83-2.64,1.28-.38.15-.75.45-1.13.6-.15,0-.23,0-.38.08-.23.08-.53.38-.83.45-.23.15-.38,0-.38.3.6.38,1.28.6,1.81.98,1.13.68,2.34,2.19,2.87,3.47.38.9.53,1.89.83,2.87v.45c0,.23.08.68.15.91v.6c.08.23.15.75.08,1.06,0,0-.08.23,0,.3v2.04c-.08.6-.08,1.36-.23,1.96v.75c-.23.75-.15,1.58-.38,2.26-.08.38.08.68-.08.98-.23.91-.3,2.04-.53,2.94v.53c-.23.83-.3,1.74-.53,2.64-.6,2.19-.83,4.53-1.51,6.71-.15.6-.23,1.21-.38,1.74-.08.15-.08.38,0,.53h.08c.08-.08.15-.08.23-.15,0-.15,0-.3.08-.45,0-.08.15-.15.23-.23,0-.15,0-.23.08-.38,0-.15.15-.23.23-.3v-.3c.08-.15.23-.3.23-.38.08-.15.08-.23.08-.38.08-.15.23-.23.3-.38v-.3l.3-.3v-.45c.08-.08.23-.15.23-.23.08-.08.08-.23.08-.3.08-.15.23-.3.3-.45,0-.15,0-.23.08-.38,0-.08.15-.15.23-.23,0-.15,0-.3.08-.53.08-.08.15-.15.23-.23v-.38c.08-.08.23-.15.3-.3v-.3c.08-.15.23-.23.3-.38v-.38c.08-.15.23-.23.3-.38v-.3c.08-.15.23-.23.3-.38v-.3c.08-.08.23-.23.3-.38,0-.08,0-.3.08-.38,0-.08.15-.15.15-.23.08-.15.08-.3.15-.45,0-.15.15-.15.23-.3v-.38c.08-.08.15-.15.23-.23.08-.15.08-.3.08-.45.08-.08.23-.15.23-.3.08-.15.08-.3.15-.45l.23-.23v-.38c.08-.15.23-.23.3-.3v-.45c.08,0,.15-.08.15-.08.15-.15.08-.3.15-.53l.3-.3c0-.15,0-.3.08-.45,0-.08.15-.15.23-.38v-.3c.08-.08.23-.15.23-.3.08-.08.08-.23.08-.38l.3-.3c.08-.15,0-.3.08-.45.08-.08.15-.15.23-.15v-.53c.08-.08.23-.15.23-.23.08-.15.08-.23.08-.38.08-.15.23-.23.23-.3.08-.08.08-.23.08-.38l.3-.3v-.45c.08-.15.23-.23.3-.3v-.23c0-.15.15-.3.23-.38.08-.15.08-.3.08-.38.08-.15.23-.3.3-.45v-.3c.08-.15.23-.23.3-.38v-.38c.08-.08.23-.15.3-.3v-.3c.08-.08.23-.23.3-.38,0-.08,0-.3.08-.38,0-.08.15-.15.15-.23.08-.15.08-.3.08-.45.08-.08.23-.23.3-.3v-.38c.08-.08.15-.15.23-.23,0-.15.08-.3.08-.38.08-.15.23-.3.3-.45.08-.15,0-.3.08-.45.08-.08.15-.08.23-.15,0-.15,0-.3.08-.45,0-.08.15-.15.23-.23v-.45c.08-.08.23-.15.23-.23.08-.15.08-.3.08-.45.08-.08.23-.23.3-.3.08-.15,0-.38.08-.45.08-.08.15-.15.23-.23v-.38c.08-.15.23-.15.23-.3.08-.08.08-.23.08-.38.08-.15.23-.23.3-.38,0-.15,0-.23.08-.38,0-.15.15-.23.23-.38v-.23c.08-.15.23-.23.23-.38.08-.08.08-.23.08-.38.08-.08.23-.15.23-.23.08-.15.08-.3.15-.45,0-.15.15-.23.23-.3v-.38c.08-.15.23-.23.3-.38v-.3c.08-.08.23-.15.23-.3.08-.08.08-.23.08-.38l.3-.3v-.45c.08-.08.23-.23.3-.3v-.38l.3-.3c0-.15,0-.3.08-.45,0-.08.15-.15.23-.23v-.38c.08-.15.23-.15.23-.3.08-.15.08-.3.15-.45,0-.08.15-.15.15-.23.08-.15.08-.3.15-.45,0-.08.08-.08.15-.15.08-.15,0-.3.08-.53.08-.08.23-.23.23-.3.08-.15.08-.3.15-.45,0-.08.15-.23.23-.3,0-.15,0-.3.08-.38,0-.08.15-.15.23-.3,0-.15,0-.3.08-.45,0-.08.15-.15.15-.15.08-.15.08-.3.08-.38.15-.3.38-.45.3-.83ZM869.99,493c.23-.9.75-1.28,1.43-1.81.3,0,.38.15.6.3.6.23,1.06.3,1.36.83.75,1.28-.15,2.57-1.28,2.79h-.75c-.6-.15-1.66-1.06-1.36-2.11Z"/>
    <path class="cls-1" d="M883.53,522.34c-.53-.15-.91-.3-1.28-.53-.45-.38-.91-1.51-.91-2.56l.15-1.13v-.75c.75-2.94,1.58-5.51,2.64-8l.45-.98c.3-.6,1.06-1.96,2.04-1.96.23,0,.53.08.75.3.38.23.53.6.53.98,0,.91-.75,1.96-1.06,2.57l-.83,1.21c-.23.45-.38.98-.75,1.43,0,.08-.15.15-.23.3l-.91,2.19-.15.68c-.3.83-.6,1.96-.6,3.09l.08.83c.15.08.3.15.53.15.23-.23.6-.23.91-.38.38-.23.83-.68,1.13-.91.45-.3.91-.83,1.21-1.28.3-.38.91-.75,1.21-1.13.53-.83,1.21-1.58,1.66-2.41.3-.23.38-.45.53-.83,0-.08.15-.15.23-.3.3-.45.53-1.06.91-1.66.15-.23.3-.53.38-.83-.23-.23-.6-.3-.98-.53l-1.06-.83-.3-.38c-1.13-1.06-1.81-2.71-1.81-4.53,0-.68.08-1.36.3-2.04.08-.23.23-.45.38-.6.15-.38.23-.68.38-.91.15-.15.38-.23.45-.38.23-.15.38-.53.6-.68.3-.15.6-.23.75-.3.23-.23.38-.38.68-.45.38-.15.98-.08,1.36-.3.53,0,.83.15,1.21.23.38.15.6.08.98.3,1.06.75,1.89,2.19,1.89,3.85,0,.45-.08.98-.23,1.51,0,.23,0,.38-.08.6-.15.83-.38,1.66-.68,2.49-.08.3-.3.6-.3.91.23.08.53.15.83.15.75,0,1.51-.23,1.96-.38.45-.08.83-.3,1.36-.38h.08c.83,0,1.36.83,1.51,1.36v.23c0,.6-.68,1.21-1.06,1.36l-.68.08c-.83.3-1.89.38-2.87.38l-.53.08-.75-.08c-.3-.08-.68-.08-.98-.08-.53.83-.98,1.81-1.51,2.72-1.66,2.56-3.47,5.28-5.88,7.09-.6.38-1.21.91-1.96,1.21-.08,0-.23,0-.38.08-.23.08-.53.23-.91.23l-.38-.08ZM893.86,504.31c0-.75-.08-1.43-.45-1.81h-.3c-.08.23-.3.23-.53.3-.3.15-.75.6-.91.98-.23.45-.3.83-.3,1.21,0,.91.45,1.74,1.06,2.19.3.15.38.45.75.53.38-.6.68-2.11.68-3.39Z"/>
    <path class="cls-1" d="M903.55,520.61c-.15-.15-.23-.38-.3-.6-.15-.15-.38-.38-.45-.6-.15-.45-.23-.98-.23-1.43,0-1.43.53-2.94.91-3.85,1.81-4.22,4.15-7.54,8-9.81h.3c.38-.23.91-.53,1.36-.68l.75-.15h.6l.53-.08.91.08c.38.23.75.38,1.13.53.68.38,1.21,1.13,1.51,1.96.15.3.08.6.15.98.08.08.15.23.15.38h.15c.45-.45.83-.91,1.13-1.43.53-.68,1.21-1.36,1.74-2.11.53-.75.98-1.66,1.74-2.19.38-.23.75-.38,1.06-.38.6,0,1.13.38,1.36.98.08.23.08.38.08.53,0,.45-.23.83-.45,1.13-.08.15-.08.3-.15.38-.45.68-1.06,1.36-1.51,2.04-1.58,2.34-3.02,4.68-4.15,7.39-.3.68-.91,2.11-.91,3.09l.08.45h.15c.23,0,.75-.38.98-.53,1.06-.6,2.04-1.43,2.87-2.34l2.26-2.11c.53-.75,1.28-1.36,1.89-2.19.08-.15.38-.3.45-.45,1.28-1.74,2.72-3.32,4-4.98.45-.68.98-1.28,1.43-1.89.23-.3.38-.53.68-.75.15-.08.45-.15.75-.15l.45.08c.53.23,1.21.83,1.21,1.66,0,.15,0,.38-.08.53-.3.68-.75,1.28-1.06,1.89-.68,1.28-1.43,2.41-2.11,3.77l-.75,1.28c-.08.15-.23.23-.23.45v.08h.15c.3-.38.68-.6.98-.91.45-.68,1.21-1.36,1.81-1.81l.08-.15c.23-.3.53-.45.83-.68.23-.23.45-.53.68-.68,1.36-.98,2.57-2.11,4-2.94.38-.23,1.74-.68,2.49-.68h.23c.23.08.45.23.68.38.38.15.68.3.83.6.3.45.38.98.38,1.58,0,.91-.23,1.81-.53,2.57-.83,1.96-1.74,3.77-2.49,5.88-.23.6-.75,1.96-.75,2.79v.3h.23c.23,0,.53-.23.68-.3.83-.45,1.51-.75,2.26-1.28,2.41-1.74,4.75-3.55,7.85-7.09.45-.45,1.21-1.74,2.19-1.74l.45.08c.53.23.91.91.91,1.51,0,.3-.15.6-.38.83l-1.36.98c-.53.45-2.04,2.41-2.64,2.87-.3.3-.6.68-.91.91-.98.75-1.89,1.66-2.87,2.41-.15.08-.23.3-.38.38-1.06.75-2.04,1.66-3.09,2.34-.68.45-1.28.83-2.04,1.13l-.45.08c-.23.08-.45.15-.75.15h-.23c-.15,0-.3-.15-.45-.15-.3-.15-.6-.08-.83-.23-.38-.23-.91-1.13-1.06-1.66l.08-2.04c.83-2.56,1.74-4.9,2.64-7.32.3-.75.6-1.51.75-2.26.08-.15.23-.45.23-.68l-.08-.15-.15-.08h-.08c-.15,0-.75.38-.91.45-.83.38-1.43.83-2.11,1.28-.23.15-.38.45-.6.6-.75.53-1.36,1.13-1.96,1.74l-1.21,1.28c-.45.6-1.06,1.06-1.43,1.58l-3.4,4.68-1.06,1.66-.38.38c-.23.38-.68.98-1.43.98l-.38-.08c-.68-.23-1.58-.83-1.58-1.74l.08-.38c.08-.3.3-.6.38-.9.68-1.51,1.51-2.94,2.19-4.45.3-.6.91-1.28.91-2.04-.75.75-1.43,1.58-2.11,2.49l-.3.23c-.45.68-1.06,1.28-1.58,1.89-.15.15-.3.23-.38.38-.91,1.06-2.04,2.11-3.17,2.94l-.38.3c-.15.15-.23.08-.38.15l-.38.3-.53.15c-.38.15-.6.23-.91.23l-.75-.15c-.3-.08-.6-.08-.83-.23-.38-.23-.53-.53-.75-.91l-.38-.53v-.3l-.08-1.13c0-.98.38-1.89.6-2.64.15-.3.15-.6.3-.9.15-.45.53-.91.6-1.51q-.08,0-.08.08c-.38.08-.53.45-.83.68l-1.81,1.96c-2.04,2.04-4.07,4.07-6.56,5.58-.3.23-1.51.68-2.11.68h-.15c-.3,0-.6,0-.83.08-.45-.15-1.28-.53-1.58-.75ZM906.94,517.89c.83-.3,1.58-.68,2.26-1.21,3.09-2.04,5.73-4.6,8.07-7.39-.3-1.51-.53-2.87-2.41-2.87-.15.15-.53.08-.75.15-.3.08-.68.15-1.06.3l-.3.23-.38.08c-2.11,1.28-3.85,2.87-5.13,4.9l-.83,1.66c-.45.91-.91,2.11-.91,3.39,0,.3,0,.68.08.98.15.08.3.08.38.08.38,0,.68-.15.98-.3Z"/>
    <path class="cls-1" d="M956.16,520.68c-.3-.15-.68-.68-.68-1.28l.08-.45c.38-1.13.98-2.11,1.43-3.17.15-.38.45-.75.6-1.06.3-.75.6-1.51,1.06-2.19l.23-.6c.38-.6.75-1.36,1.06-1.96.53-1.28,1.21-2.57,1.89-3.7.08-.15.08-.38.23-.53.38-.6.75-1.36,1.21-2.04.38-.6.6-1.21.98-1.81.08-.15.3-.23.45-.38.23-.38.6-.75,1.13-.75l.45.08c.38.15,1.13.68,1.13,1.36l-.08.3c-.15.53-.45,1.06-.68,1.51l-.3.45c-.08.08-.08.23-.15.38-.3.53-.75,1.13-1.13,1.66l-1.36,2.41c-.15.15-.15.3-.23.45-.38.53-.6,1.13-.98,1.66-.08.23-.3.38-.3.75l.15-.08c.3-.08.53-.45.75-.75.6-.53,1.13-1.13,1.74-1.74,1.74-1.66,3.62-3.39,5.66-4.75.6-.38,1.28-.9,2.04-1.13l1.43-.15c.23,0,.53,0,.75.15.53.23,1.36,1.21,1.51,1.81.08.08.08.83.08,1.28v.45c0,.15-.15.38-.23.53v.53l-.08.23c0,.15-.15.3-.23.45l-.08.45-.3.53-.15.6-.3.45c-.08.15-.08.3-.08.45l-.3.38c-.3.75-.6,1.28-.91,2.11l-.38.53c-.15.45-.23.83-.45,1.28-.08.23-.23.3-.23.68,0,0,.08,0,.08.08.53-.23.83-.45,1.21-.75l2.26-1.58.45-.45c.98-.75,1.89-1.58,2.87-2.41.38-.23.68-.68,1.06-.98l1.06-.91c.15-.23.38-.38.53-.53.08-.15.23-.15.38-.3.6,0,.98.3.98.91l-.38.53-.53.53-1.43,1.58c-.3.23-.53.53-.75.83-.3.23-.6.53-.83.83-.83,1.06-1.96,2.04-2.87,2.94-.83.83-1.43,1.66-2.34,2.34l-.3.38c-.75.6-2.04,1.74-3.4,1.74-.38,0-.83-.08-1.21-.38-.15-.08-.23-.3-.38-.45-.38-.45-.75-.6-.98-1.28v-.3l.08-.68v-.83c0-.23.15-.45.23-.6,0-.15,0-.38.08-.53,0-.15.15-.3.23-.38l.08-.68,1.89-4.45c.15-.15.23-.3.3-.45l.15-.53.23-.3c.08-.15.08-.3.08-.45.23-.38.53-.75.53-1.28l-.15-.08c-.45.3-.91.53-1.28.83-.68.45-1.28.98-1.96,1.51-.38.3-.68.75-1.13,1.06-.23.23-.45.53-.68.68l-.75.6c0,.08,0,.23-.08.23-.3.23-.53.53-.75.75l-1.74,1.81-.83.91-2.26,2.79c-.3.45-.68.75-.98,1.21l-.53.45c-.15.3-.38.53-.68.68-.23.15-.6.23-.98.23s-.75-.08-.98-.23Z"/>
    <path class="cls-1" d="M997.68,521.59c-.3-.15-1.21-.98-1.36-1.36-.15-.38-.23-.91-.23-1.43,0-1.36.45-2.87.75-3.7.15-.38.38-.83.45-1.36h-.15c-.23.38-.6.6-.83.83-.6.68-1.21,1.28-1.89,1.81l-.45.53c-1.21.91-2.11,1.89-3.32,2.72-.53.45-1.06.91-1.74,1.21-.6.15-.45.3-1.21.45h-.6l-.45.08c-.38,0-.53-.15-.83-.3-.23-.08-.45-.08-.68-.23-.38-.23-.6-.83-.83-1.21-.08-.23-.15-.6-.15-1.06.15-2.94.75-3.85,2.11-6.19.15-.15.15-.3.23-.53l1.58-2.26c.15-.23.45-.38.6-.6l1.36-1.58c.08-.08.3-.15.38-.3.53-.68,1.28-1.21,2.04-1.73.15-.08.23-.3.38-.38.3-.15.53-.3.83-.38.98-.6,1.43-.91,2.64-.91h1.06c.15,0,.3.15.45.15.68.15.68.23,1.06.6.6.53.75.6,1.13,1.66.08.23,0,.75.15.98h.15c.23-.38.68-.68.91-1.06l.15-.53c.08-.08.23-.15.3-.3.68-.98,1.21-1.96,2.19-2.64.45-.6.83-.75,1.36-.75.83,0,1.51.6,1.74,1.36l.08.3c0,.38-.23.75-.3,1.06-.23.83-.6,1.28-.98,1.89-.15.3-.23.6-.38.83-.15.15-.3.23-.45.3l-.23.45c-.08.08-.23.08-.3.23-.3.3-.45.68-.75,1.06-.08.15-.23.23-.38.38-.91,1.36-1.73,2.87-2.41,4.45-.38.91-1.06,2.26-1.13,3.47.08,0,.08.08.23.08.15-.15.45-.23.6-.38l1.51-1.13c.23-.23.38-.53.68-.68,1.96-1.74.98-.91,2.94-2.79.45-.53.98-.98,1.36-1.51.3-.23,1.06-.83,1.06-.98h-.15c0-.08.6-.6,1.06-1.21.3-.38.68-.68.91-.98.3-.38.45-.83.83-1.06.23-.15.38-.15.53-.15.53,0,.98.38,1.13.68.15.15.15.38.15.53,0,.53-.6.91-.83,1.13-1.21,1.21-2.56,2.41-3.62,3.77l.15-.23c-.53.75-1.21,1.36-1.74,2.11-.23.23-.53.38-.68.68-.38.45-.83.91-1.21,1.43-.08.08-.23.15-.3.3-.45.53-.91.98-1.28,1.51-.75.68-.68,1.06-1.51,1.51-.38.23-.15.08-.38.45-.15.15-.38.23-.53.3-.15.08-.23.3-.38.38-.38.23-1.13.38-1.73.38-.3,0-.6,0-.83-.15ZM988.1,517.74c.98-.3.83-.53,1.66-.9,1.36-.91,2.49-1.81,3.39-2.72.38-.38.68-.3.91-.83,3.09-2.72,1.89-1.74,4.38-4.22,0-.3-.08-.38-.15-.6-.3-.98-.53-1.74-1.74-1.74-2.04.08-4.07,1.89-5.81,3.62-.23.3-.38.75-.6,1.06-1.13,1.43-2.26,3.32-2.64,5.21-.15.3-.23.75-.23,1.21v.23h.23c.23,0,.45-.23.6-.3Z"/>
  </g>
</svg>